<svg xmlns:dc="http://purl.org/dc/elements/1.1/" xmlns:cc="http://creativecommons.org/ns#" xmlns:rdf="http://www.w3.org/1999/02/22-rdf-syntax-ns#" xmlns:svg="http://www.w3.org/2000/svg" xmlns="http://www.w3.org/2000/svg" xmlns:sodipodi="http://sodipodi.sourceforge.net/DTD/sodipodi-0.dtd" xmlns:inkscape="http://www.inkscape.org/namespaces/inkscape" version="1.1" x="0px" y="0px" viewBox="0 0 100 125"><g  transform="translate(0,-952.36218)"><path style="block-progression:tb;baseline-shift:baseline;enable-background:accumulate;" d="m 70.881526,967.36218 c -10.756473,0 -18.846995,9.04089 -18.965455,19.96875 -0.03167,2.9213 0,4.09407 0,5.03125 -0.02238,1.58494 1.412332,3.04273 2.994546,3.04273 1.582214,0 3.016919,-1.45779 2.994545,-3.04273 0,-1.06278 -0.03101,-2.10753 0,-4.96875 0.08809,-8.12604 5.484077,-14.03125 12.976364,-14.03125 l 0.998181,0 c 7.492417,0 13.974546,6.12224 13.974546,14 0,7.87776 -6.482147,14.00002 -13.974546,14.00002 l -35.934544,0 c -1.582057,-0.022 -3.037194,1.4149 -3.037194,3 0,1.5851 1.455137,3.0224 3.037194,3 l 35.934544,0 c 10.75636,0 19.963637,-8.82276 19.963637,-20.00002 0,-11.17726 -9.207295,-20 -19.963637,-20 z m -40.925454,10 c -5.857194,0 -10.98,4.81642 -10.98,11 -0.02237,1.58494 1.412331,3.04273 2.994545,3.04273 1.582214,0 3.01692,-1.45779 2.994546,-3.04273 0,-2.7835 2.485511,-5 4.990909,-5 l 0.998182,0 c 2.505539,8e-5 4.990909,2.2165 4.990909,5 0,2.87703 -2.26716,5 -4.772557,5 l -22.178352,0 c -1.5820562,-0.0224 -3.0371938,1.4149 -3.0371938,3 0,1.5851 1.4551376,3.02242 3.0371938,3 l 22.178352,0 c 5.857194,0 10.761647,-4.90995 10.761647,-11 0,-6.18358 -5.122947,-10.99982 -10.979999,-11 z m -15.284659,24.00002 c -1.568128,0.082 -2.920771,1.5853 -2.839099,3.1563 0.08167,1.5709 1.582931,2.9258 3.151031,2.8437 l 10.98,0 c 1.582056,0.022 3.037193,-1.4149 3.037193,-3 0,-1.5851 -1.455137,-3.0224 -3.037193,-3 -3.749773,0 -7.56726,0 -11.291932,0 z m -5.9890909,8 c -1.5681278,0.082 -2.9207709,1.5853 -2.8390984,3.1563 0.081673,1.5709 1.5829308,2.9258 3.1510303,2.8437 l 70.870908,0 c 4.475737,0 7.985454,3.5161 7.985454,8 0,4.4839 -3.509717,8 -7.985454,8 l -0.998182,0 c -4.475608,0 -8.03536,-3.5257 -7.985454,-7.9688 0.01134,-1.0089 0,-1.9796 0,-3.0312 0.02237,-1.585 -1.412332,-3.0427 -2.994546,-3.0427 -1.582214,0 -3.016919,1.4577 -2.994545,3.0427 0,1.092 0.01032,2.0498 0,2.9687 -0.08698,7.7441 6.284313,14.0313 13.974545,14.0313 l 0.998182,0 c 7.6901,0 13.974545,-6.2959 13.974545,-14 0,-7.7041 -6.284445,-14 -13.974545,-14 -23.720326,0 -47.484856,0 -71.1828399,0 z m 11.9781819,8 c -1.568128,0.082 -2.920771,1.5853 -2.839099,3.1563 0.08167,1.5709 1.582931,2.9258 3.151031,2.8437 l 16.96909,0 c 1.582056,0.022 3.037194,-1.4149 3.037194,-3 0,-1.5851 -1.455138,-3.0224 -3.037194,-3 -5.74827,0 -11.556995,0 -17.281022,0 z" fill="#608ac5" fill-opacity="1" stroke="none" marker="none" visibility="visible" display="inline" overflow="visible"/></g></svg>